<?xml version="1.0" encoding="utf-8"?>
<!-- Generator: Adobe Illustrator 16.0.0, SVG Export Plug-In . SVG Version: 6.00 Build 0)  -->
<!DOCTYPE svg PUBLIC "-//W3C//DTD SVG 1.1 Basic//EN" "http://www.w3.org/Graphics/SVG/1.1/DTD/svg11-basic.dtd">
<svg version="1.1" baseProfile="basic" id="Layer_1"
	 xmlns="http://www.w3.org/2000/svg" xmlns:xlink="http://www.w3.org/1999/xlink" x="0px" y="0px" width="375.5px" height="68px"
	 viewBox="0 0 375.5 68" xml:space="preserve">
<g>
	<polygon points="60.315,24.832 75.674,54.629 82.151,54.629 60.315,12.597 38.539,54.629 45.028,54.629 	"/>
	<polygon points="85.396,54.629 85.396,12.596 113.573,41.053 113.573,13.125 119.317,13.125 119.317,54.958 91.14,26.64 
		91.14,54.629 	"/>
	<path d="M237.739,55.582c-11.971,0-21.711-9.736-21.711-21.704c0-11.969,9.74-21.705,21.711-21.705
		c11.967,0,21.705,9.736,21.705,21.705C259.444,45.846,249.706,55.582,237.739,55.582 M237.739,17.914
		c-8.803,0-15.963,7.16-15.963,15.964c0,8.8,7.16,15.964,15.963,15.964c8.799,0,15.959-7.164,15.959-15.964
		C253.698,25.074,246.538,17.914,237.739,17.914"/>
	<path d="M210.009,42.137c-2.799,4.613-7.875,7.705-13.654,7.705c-8.799,0-15.961-7.164-15.961-15.964
		c0-8.804,7.162-15.964,15.961-15.964c5.779,0,10.855,3.091,13.654,7.704l4.143-4.145c-3.926-5.617-10.438-9.3-17.797-9.3
		c-11.967,0-21.703,9.737-21.703,21.705c0,11.968,9.736,21.704,21.703,21.704c7.359,0,13.871-3.681,17.797-9.3L210.009,42.137z"/>
	<path d="M279.682,55.583c-9.334,0-16.927-7.592-16.927-16.928V13.186h5.71v25.469c0,6.186,5.033,11.217,11.217,11.217
		c6.187,0,11.219-5.031,11.219-11.217V13.186h5.711v25.469C296.611,47.991,289.018,55.583,279.682,55.583"/>
	<path d="M330.875,54.618L311.82,31.995h10.605c3.625,0,6.578-2.954,6.578-6.582c0-3.627-2.953-6.579-6.578-6.579h-14.52v35.792
		h-5.709V13.124h20.229c6.775,0,12.287,5.514,12.287,12.289c0,6.245-4.68,11.418-10.713,12.191l14.348,17.026L330.875,54.618z"/>
	<path d="M33.565,13.116v24.378c0,6.663-4.711,12.305-11.484,12.305c-6.639,0-11.489-5.256-11.489-11.615v-1.617H4.881v1.752
		c0,9.482,7.715,17.195,17.2,17.195c7.894,0,14.564-5.35,16.574-12.615c0.514-1.809,0.621-4.141,0.621-6.68V13.116H33.565z"/>
	<rect x="350.57" y="14.467" width="5.711" height="40.162"/>
	<rect x="336.471" y="13.124" width="33.91" height="5.71"/>
	<rect x="127.765" y="31.611" width="31.875" height="5.71"/>
	<rect x="125.718" y="48.92" width="33.922" height="5.709"/>
	<rect x="125.718" y="14.286" width="5.711" height="39.185"/>
	<rect x="125.718" y="13.124" width="33.922" height="5.71"/>
</g>
</svg>
